<?xml version="1.0" encoding="UTF-8"?>
<svg version="1.1" xmlns="http://www.w3.org/2000/svg" width="512" height="512">
<path d="M0 0 C168.96 0 337.92 0 512 0 C512 168.96 512 337.92 512 512 C343.04 512 174.08 512 0 512 C0 343.04 0 174.08 0 0 Z " fill="#441111" transform="translate(0,0)"/>
<path d="M0 0 C10.56 0 21.12 0 32 0 C35.66966392 9.28649646 39.26847477 18.57353076 42.5625 28 C42.81845947 28.73186523 43.07441895 29.46373047 43.33813477 30.21777344 C44.93282534 34.82017155 46.4790484 39.43776908 48.01127625 44.06123352 C51.34097815 54.10206435 54.79425714 64.09638789 58.29251099 74.07962036 C59.94156734 78.78638196 61.58577455 83.49483773 63.23046875 88.203125 C63.71754555 89.59707237 63.71754555 89.59707237 64.21446228 91.0191803 C69.7409328 106.84008931 75.24240274 122.67081249 80.5625 138.5625 C80.80234619 139.27736572 81.04219238 139.99223145 81.28930664 140.72875977 C82.30956247 143.79945862 83.23930592 146.85576925 84 150 C84.31638428 149.04561035 84.63276855 148.0912207 84.95874023 147.10791016 C101.41571324 97.48980358 101.41571324 97.48980358 109.2734375 76.51904297 C112.19733989 68.62616781 114.80993744 60.63083931 117.44729614 52.6388855 C123.28475372 34.96708816 129.63997508 17.49006854 136 0 C146.56 0 157.12 0 168 0 C168 61.05 168 122.1 168 185 C160.08 185 152.16 185 144 185 C144 136.82 144 88.64 144 39 C143.01 43.62 142.02 48.24 141 53 C139.95076176 56.34164442 138.87654787 59.58306213 137.65625 62.85546875 C137.33470444 63.74056122 137.01315887 64.62565369 136.68186951 65.53756714 C135.63031473 68.42428685 134.5654263 71.30587436 133.5 74.1875 C132.75007628 76.23665778 132.00082317 78.28606109 131.25219727 80.33569336 C124.77838183 98.02390773 118.20214697 115.67538955 111.59765625 133.31518555 C110.84503514 135.32600277 110.09243066 137.33682622 109.33984375 139.34765625 C108.97881561 140.31150742 108.61778748 141.27535858 108.24581909 142.26841736 C105.25983251 150.25904475 102.34592674 158.27510956 99.47727966 166.30860901 C99.16581497 167.17412888 98.85435028 168.03964874 98.53344727 168.93139648 C98.26041275 169.69548325 97.98737823 170.45957001 97.70606995 171.24681091 C97 173 97 173 96 174 C94.21928754 174.08726223 92.4351686 174.10699041 90.65234375 174.09765625 C89.57275391 174.09443359 88.49316406 174.09121094 87.38085938 174.08789062 C86.24455078 174.07951172 85.10824219 174.07113281 83.9375 174.0625 C82.79732422 174.05798828 81.65714844 174.05347656 80.48242188 174.04882812 C77.65489649 174.03699747 74.8274736 174.0205141 72 174 C69.22569182 166.58463011 66.45548184 159.16773359 63.6875 151.75 C63.26593628 150.62030792 62.84437256 149.49061584 62.41003418 148.32669067 C54.98350007 128.41451943 47.66048372 108.46579111 40.40893555 88.48925781 C39.66333659 86.43942115 38.91765185 84.38961569 38.171875 82.33984375 C37.81623978 81.35843414 37.46060455 80.37702454 37.0941925 79.36587524 C35.46819511 74.90431799 33.80673762 70.46889009 32.00585938 66.07470703 C31.69046204 65.29825333 31.3750647 64.52179962 31.05010986 63.72181702 C30.48257152 62.33779244 29.90339427 60.95841536 29.30682373 59.58665466 C26.23482642 52.09072735 25.57747577 45.41320409 24 37 C24 85.84 24 134.68 24 185 C16.08 185 8.16 185 0 185 C0 123.95 0 62.9 0 0 Z " fill="#FD5454" transform="translate(142,164)"/>
<path d="M0 0 C8.58 0 17.16 0 26 0 C27.7634375 4.95 27.7634375 4.95 29.5625 10 C34.42414681 23.57139481 39.49903927 37.06165207 44.59399414 50.546875 C47.77279866 58.97346411 50.87822108 67.41707508 53.85112 75.91856384 C56.28045124 82.84652432 58.87539956 89.70601499 61.5 96.5625 C68.18908453 114.09484116 74.72481583 131.67278758 81.125 149.3125 C82.18263753 152.22475454 83.24049955 155.13692737 84.29852295 158.04904175 C84.97119529 159.90173351 85.64313051 161.75469309 86.31427002 163.60794067 C87.65539706 167.3100719 89.00314633 171.00841726 90.38183594 174.69677734 C90.74825195 175.67727051 91.11466797 176.65776367 91.4921875 177.66796875 C91.79237793 178.45840576 92.09256836 179.24884277 92.40185547 180.06323242 C93 182 93 182 93 185 C84.75 185 76.5 185 68 185 C66.659375 181.4525 65.31875 177.905 63.9375 174.25 C63.53136475 173.17911133 63.12522949 172.10822266 62.70678711 171.00488281 C58.96233024 161.05549939 55.51582846 151.04522418 52 141 C12.895 140.505 12.895 140.505 -27 140 C-27.66 142.97 -28.32 145.94 -29 149 C-29.69544379 151.08962806 -30.4394301 153.16404681 -31.2421875 155.21484375 C-31.66886719 156.31376953 -32.09554687 157.41269531 -32.53515625 158.54492188 C-32.97730469 159.66447266 -33.41945313 160.78402344 -33.875 161.9375 C-34.52662109 163.61102539 -34.52662109 163.61102539 -35.19140625 165.31835938 C-37.75703292 171.89422232 -40.37838431 178.44596078 -43 185 C-51.25 185 -59.5 185 -68 185 C-65.75294811 176.01179245 -65.75294811 176.01179245 -64.30078125 172.328125 C-63.98222168 171.50908691 -63.66366211 170.69004883 -63.33544922 169.84619141 C-62.82908936 168.56107666 -62.82908936 168.56107666 -62.3125 167.25 C-59.53122493 160.08418633 -56.87415624 152.89399454 -54.375 145.625 C-51.96149564 138.62089249 -49.33421053 131.76455767 -46.53125 124.90625 C-44.69891418 120.32541046 -43.10608679 115.6639217 -41.5 111 C-39.02074535 103.80100422 -36.33877886 96.7452625 -33.4609375 89.6953125 C-31.61353136 85.02246168 -29.96578451 80.29279709 -28.32006836 75.54614258 C-26.49480411 70.31632 -24.53161493 65.15286377 -22.5 60 C-20.33136009 54.49125693 -18.2487962 48.96960611 -16.3125 43.375 C-13.25336827 34.54885066 -9.96787455 25.80815802 -6.6875 17.0625 C-6.4147525 16.33415955 -6.142005 15.60581909 -5.86099243 14.85540771 C-5.0792901 12.76896586 -4.29587091 10.68317846 -3.51171875 8.59765625 C-3.05240967 7.37570557 -2.59310059 6.15375488 -2.11987305 4.89477539 C-1 2 -1 2 0 0 Z " fill="#FC5454" transform="translate(405,164)"/>
<path d="M0 0 C7.92 0 15.84 0 24 0 C24 53.79 24 107.58 24 163 C48.09 163 72.18 163 97 163 C97 170.26 97 177.52 97 185 C64.99 185 32.98 185 0 185 C0 123.95 0 62.9 0 0 Z " fill="#FC5353" transform="translate(14,164)"/>
<path d="M0 0 C2.53096354 2.23705163 3.62666964 4.11465649 4.71069336 7.29907227 C5.01248505 8.171259 5.31427673 9.04344574 5.62521362 9.94206238 C6.10270554 11.36486259 6.10270554 11.36486259 6.58984375 12.81640625 C7.10141525 14.30512993 7.10141525 14.30512993 7.62332153 15.82392883 C8.73610691 19.06742401 9.83683705 22.31487334 10.9375 25.5625 C12.08064526 28.9062834 13.22661976 32.24908857 14.37272644 35.59185791 C15.14102824 37.83348611 15.90828804 40.07547172 16.67451477 42.31781006 C19.00430137 49.12942261 21.37109024 55.92623106 23.7890625 62.70703125 C24.21509514 63.90293633 24.21509514 63.90293633 24.6497345 65.1230011 C25.71009841 68.09602716 26.7719489 71.06847749 27.84176636 74.03811646 C28.55596691 76.02143493 29.26474985 78.00661572 29.97265625 79.9921875 C30.36718994 81.08901855 30.76172363 82.18584961 31.16821289 83.31591797 C32 86 32 86 32 89 C11.21 89 -9.58 89 -31 89 C-28.99422561 82.31408538 -26.91928056 75.75412598 -24.55859375 69.19921875 C-24.23440964 68.29202591 -23.91022552 67.38483307 -23.57621765 66.45014954 C-22.88690016 64.52149384 -22.1965352 62.59321225 -21.50518799 60.6652832 C-19.70226672 55.6369334 -17.90729521 50.60575228 -16.11328125 45.57421875 C-15.58157318 44.08328201 -15.58157318 44.08328201 -15.03912354 42.56222534 C-11.59447172 32.88829005 -8.23581099 23.1862111 -4.91967773 13.4675293 C-4.55688721 12.40574463 -4.19409668 11.34395996 -3.8203125 10.25 C-3.51367676 9.34765625 -3.20704102 8.4453125 -2.89111328 7.515625 C-1.99318901 4.98077248 -1.01589935 2.48965306 0 0 Z " fill="#471212" transform="translate(417,194)"/>
<path d="M0 0 C0.33 0 0.66 0 1 0 C1 13.53 1 27.06 1 41 C-12.53 41 -26.06 41 -40 41 C-36.77794772 39.38897386 -33.66489916 38.09649079 -30.3125 36.8125 C-16.32964928 30.99481758 -7.86955879 20.70813891 -2 7 C-1.17794005 4.65968578 -0.55034658 2.42152494 0 0 Z " fill="#000000" transform="translate(511,471)"/>
<path d="M0 0 C1.61102614 3.22205228 2.90350921 6.33510084 4.1875 9.6875 C10.00518242 23.67035072 20.29186109 32.13044121 34 38 C36.34031422 38.82205995 38.57847506 39.44965342 41 40 C41 40.33 41 40.66 41 41 C27.47 41 13.94 41 0 41 C0 27.47 0 13.94 0 0 Z " fill="#000000" transform="translate(0,471)"/>
<path d="M0 0 C13.53 0 27.06 0 41 0 C41 13.53 41 27.06 41 41 C39.38897386 37.77794772 38.09649079 34.66489916 36.8125 31.3125 C30.99481758 17.32964928 20.70813891 8.86955879 7 3 C4.65968578 2.17794005 2.42152494 1.55034658 0 1 C0 0.67 0 0.34 0 0 Z " fill="#000000" transform="translate(471,0)"/>
<path d="M0 0 C13.53 0 27.06 0 41 0 C37.77794772 1.61102614 34.66489916 2.90350921 31.3125 4.1875 C17.32964928 10.00518242 8.86955879 20.29186109 3 34 C2.17794005 36.34031422 1.55034658 38.57847506 1 41 C0.67 41 0.34 41 0 41 C0 27.47 0 13.94 0 0 Z " fill="#000000" transform="translate(0,0)"/>
</svg>
