<?xml version="1.0" encoding="UTF-8"?>
<svg id="Layer_3" data-name="Layer 3" xmlns="http://www.w3.org/2000/svg" width="200.3mm" height="241.03mm" viewBox="0 0 667.36 683.25">
  <defs>
    <style>
      .cls-1 {
        fill: #fff;
      }

      .cls-2 {
        fill: #151717;
      }
    </style>
  </defs>
  <rect class="cls-2" width="667.36" height="683.25"/>
  <g>
    
    <g>
      <g id="Seahorse">
        <path class="cls-1" d="M316.08,133.29s.08.04.08.08-.04.07-.08.08c-28.27,9.89-37.25,44.3-37.25,44.3,0,.05,0,.1.05.13.06.04.13.03.18-.03,51.17-67.02,98.83-45.33,98.83-45.33.09.02.14.11.11.19-.02.07-.08.13-.15.12-.91-.09-15-1.22-19.71,11.79l71.04,79.32c0,2.31-.89,4.36-2.31,6.16-.74-1.08-3.79-2.51-5.82-3.16-2.78-.9-5.36-1.34-5.36-3.42,0-1.5,1.31-1.9,2-1.9.61,0,.95.28.95.28.01.01.03.02.04,0,.02-.01.02-.03.01-.04,0,0-.48-1.06-1.9-1.08-1.38-.03-3.58.95-3.71,3.57-.1,2.16.93,3.33,2.5,4.42,1.55,1.07,4.59,2.44,4.59,4.71s-1.73,2.8-2.12,2.98c-.75.36-7.19,3.27-13.49,4.45-.32-1.1-.33-4.77-6.81-11.24-12.52-12.52-57.21-2.05-57.21-32.86,0-14.22,13.5-19.89,21.23-19.46,6.55.36,9.31,2.37,9.8,2.69.04.03.09.02.13,0,.07-.04.09-.13.05-.19,0,0-4.91-10.79-18.84-10.79-15.42,0-37.08,11.28-37.08,35.92,0,51.13,71.64,47.92,71.64,91.13,0,16.86-9.9,25.47-22.37,29.9,0,0,5.96-4.22,5.96-12.24,0-36.56-84.68-28.7-84.68-68.85,0-15.63,13.33-21.29,16.75-21.29.08,0,.14-.07.14-.14,0-.05-.03-.1-.07-.12-.41-.25-2.58-1.39-6.64-1.39-10.6,0-30.82,9.55-30.82,33.85,0,28.94,37.65,47.14,37.65,61.12,0,6.09-3.82,10.21-3.82,10.21-30.93-9.86-70.46-40.88-70.46-96.19,0-66.89,62.46-97.66,86.96-97.66"/>
      </g>
      <g id="AUS">
        <path class="cls-1" d="M179.83,553.39h-5.42l14.43-35.23h3.42l13.01,35.23h-6.32l-3.16-8.74h-12.59l-3.37,8.74ZM189.89,526.69l-5.21,13.85h9.85l-4.63-13.85Z"/>
        <path class="cls-1" d="M242.71,541.76c0,5.58-3.95,12.32-14.17,12.32-9.16,0-14.17-4.9-14.17-12.16v-23.65h6.06v23.01c0,5.48,2.58,8.27,8.53,8.27s8.32-4.06,8.32-8.27v-23.01h5.42v23.49Z"/>
        <path class="cls-1" d="M265.67,549.6c3.21,0,6-2,6-4.69,0-3.48-3.69-5.21-7.48-7.53-3.58-2.21-8.32-4.58-8.32-10.64,0-5.21,4.63-9.16,10.69-9.16,5.11,0,8,1.21,9.64,1.95l-1.74,4.21c-1.37-.63-3.69-1.69-7-1.69s-5.58,1.63-5.58,3.79c0,3.37,3.37,4.84,7.27,7.32,3.48,2.21,8.9,5.11,8.9,10.69,0,6.21-6.11,10.22-12.53,10.22-6,0-9.27-1.74-10.69-2.42l1.84-4.11c1.26.53,4.16,2.05,9.01,2.05Z"/>
        <path class="cls-1" d="M287.36,518.27h28.44v4.48h-11.22v30.65h-6.06v-30.65h-11.16v-4.48Z"/>
        <path class="cls-1" d="M347.03,553.92l-9.95-16.38h-3.58v15.85h-6.06v-35.13h9.74c9.22,0,12.59,4.79,12.59,9.01,0,4.84-4.06,8.16-6.74,8.95l10.74,17.17-6.74.53ZM336.65,533.49c4.9,0,7.11-2.95,7.11-5.63,0-2.84-2.11-5.48-7.06-5.48h-3.26v11.11h3.21Z"/>
        <path class="cls-1" d="M365.67,553.39h-5.42l14.43-35.23h3.42l13.01,35.23h-6.32l-3.16-8.74h-12.59l-3.37,8.74ZM375.73,526.69l-5.21,13.85h9.85l-4.63-13.85Z"/>
        <path class="cls-1" d="M408.38,548.92h13.01v4.48h-19.06v-35.13h6.06v30.65Z"/>
        <path class="cls-1" d="M433.44,553.39v-35.13h6v35.13h-6Z"/>
        <path class="cls-1" d="M455.66,553.39h-5.42l14.43-35.23h3.42l13.01,35.23h-6.32l-3.16-8.74h-12.59l-3.37,8.74ZM465.72,526.69l-5.21,13.85h9.85l-4.63-13.85Z"/>
      </g>
      <g id="UOFN">
        <g>
          <path class="cls-1" d="M150.99,397.88c0,5.02-3.32,14.73-16.75,14.73-10.88,0-16.68-5.54-16.68-14.34v-29.98h5.8v29.58c0,7.1,3.58,10.3,11.47,10.3,7.3,0,11.01-4.76,11.01-10.3v-29.58h5.15v29.58Z"/>
          <path class="cls-1" d="M195.5,368.3v43.47h-4.69l-26.33-33.43v33.43h-5.21v-43.47h4.69l26.33,33.82v-33.82h5.21Z"/>
          <path class="cls-1" d="M203.74,411.77v-43.47h5.8v43.47h-5.8Z"/>
          <path class="cls-1" d="M234.64,412.16h-2.54l-14.34-43.86h6.06l10.23,32.52,11.4-32.52h5.21l-16.03,43.86Z"/>
          <path class="cls-1" d="M283.43,411.77h-24.57v-43.47h23.79v4.36h-17.99v14.53h13.16v4.37h-13.16v15.84h18.77v4.37Z"/>
          <path class="cls-1" d="M315.18,412.42l-12.9-21.11h-4.82v20.46h-5.8v-43.47h11.53c10.95,0,13.82,6.71,13.82,10.43,0,5.74-4.56,10.49-8.93,11.47l13.36,21.57-6.26.65ZM301.56,387.46c6.78,0,9.64-4.37,9.64-7.76,0-3.84-2.8-7.43-9.58-7.43h-4.3v15.18h4.24Z"/>
          <path class="cls-1" d="M337.41,408.25c4.37,0,8.08-3.19,8.08-6.84,0-5.02-5.15-7.36-9.91-10.23-4.63-2.8-10.43-5.47-10.43-12.71,0-6.13,5.21-11.01,12.84-11.01,5.6,0,9.38,1.37,11.4,2.28l-1.76,4.17c-1.82-.78-4.69-2.09-9.58-2.09-5.47,0-7.36,3-7.36,5.54,0,4.63,4.24,6.45,9.64,9.78,4.63,2.93,11.21,5.93,11.21,13.42,0,7.04-7.1,12.06-14.4,12.06s-11.47-2.15-13.29-3l1.89-4.04c1.56.65,5.54,2.67,11.67,2.67Z"/>
          <path class="cls-1" d="M359.75,411.64v-43.47h5.8v43.47h-5.8Z"/>
          <path class="cls-1" d="M373.78,368.3h33.5v4.36h-13.88v39.1h-5.8v-39.1h-13.81v-4.36Z"/>
          <path class="cls-1" d="M446.33,368.3l-14.01,22.42v21.05h-5.8v-21.05l-13.75-22.42h6.26l10.95,18.05,10.88-18.05h5.47Z"/>
          <path class="cls-1" d="M509.27,390.06c0,13.69-9.06,22.55-21.18,22.55s-21.18-8.73-21.18-22.55c0-12.9,8.34-22.61,21.18-22.61,13.62,0,21.18,9.38,21.18,22.61ZM473.17,390.06c0,10.95,5.87,18.31,14.92,18.31s14.92-7.36,14.92-18.31-5.87-18.38-14.92-18.38-14.92,7.43-14.92,18.38Z"/>
          <path class="cls-1" d="M517.63,411.77v-43.47h22.48v4.36h-16.68v14.53h11.73v4.37h-11.73v20.2h-5.8Z"/>
        </g>
        <path class="cls-1" d="M164.98,429.25v52.55h-10.63l-27.26-34.98v34.98h-9.53v-52.55h9.93l27.97,35.77v-35.77h9.53Z"/>
        <path class="cls-1" d="M207.25,481.79h-33.87v-52.55h32.93v8.19h-21.74v13.24h15.91v8.19h-15.91v14.73h22.69v8.19Z"/>
        <path class="cls-1" d="M236.41,482.27h-6.85l-17.25-53.02h11.03l11.34,35.92,7.56-20.8-4.88-15.13h11.11l10.79,34.82,11.9-34.82h9.69l-19.38,53.02h-6.85l-8.59-26.39-9.61,26.39Z"/>
        <path class="cls-1" d="M326.4,478.96c-3.7,1.97-8.82,3.86-18.75,3.86-15.6,0-27.73-11.19-27.73-27.26s12.13-27.34,27.73-27.34c10.95,0,15.99,2.52,18.28,3.86l-3.15,7.56c-1.73-.79-5.83-2.99-13.94-2.99s-17.17,7.64-17.17,18.91,8.75,18.83,17.17,18.83c7.72,0,11.5-1.81,14.26-2.91l3.31,7.48Z"/>
        <path class="cls-1" d="M338.29,481.79h-10.01l21.43-52.7h7.64l19.38,52.7h-11.5l-4.02-11.82h-18.51l-4.41,11.82ZM352.55,443.51l-7.17,19.14h13.47l-6.3-19.14Z"/>
        <path class="cls-1" d="M395.29,474.62c4.25,0,8.11-2.05,8.11-5.67,0-4.25-4.81-6.62-10.48-10.16-5.04-3.15-12.21-7.01-12.21-16.39,0-8.19,7.64-14.18,16.46-14.18s12.68,2.05,15.13,3.15l-3.15,7.48c-1.89-.95-5.36-2.44-9.38-2.44-3.7,0-7.8,1.18-7.8,4.65,0,4.41,5.04,6.54,10.16,9.93,4.81,3.15,13,8.19,13,15.76,0,10.24-9.61,16.07-20.01,16.07-8.82,0-13.86-2.52-15.91-3.7l3.15-7.41c1.89.87,5.75,2.92,12.92,2.92Z"/>
        <path class="cls-1" d="M418.02,429.25h44.75v8.19h-16.78v44.35h-11.19v-44.35h-16.78v-8.19Z"/>
        <path class="cls-1" d="M480.61,473.6h19.46v8.19h-30.65v-52.55h11.19v44.35Z"/>
        <path class="cls-1" d="M539.61,481.79h-33.87v-52.55h32.93v8.19h-21.74v13.24h15.91v8.19h-15.91v14.73h22.69v8.19Z"/>
      </g>
    </g>
  </g>
</svg>